<svg xmlns="http://www.w3.org/2000/svg" xmlns:xlink="http://www.w3.org/1999/xlink" viewBox="0 0 500.74 363.53"><defs><style>.cls-1{fill:none;}.cls-2{clip-path:url(#clip-path);}.cls-3{fill:#e7e4e4;}.cls-4{fill:#29abe2;}.cls-5{fill:#18d4ff;}</style><clipPath id="clip-path" transform="translate(-66.33 -44.44)"><rect class="cls-1" width="646" height="454.15"/></clipPath></defs><title>Asset 2</title><g id="Layer_2" data-name="Layer 2"><g id="Layer_1-2" data-name="Layer 1"><g class="cls-2"><path d="M452.79,157.3h-1c.37,1.27.71,2.55,1,3.85C452.83,159.86,452.82,158.57,452.79,157.3Z" transform="translate(-66.33 -44.44)"/><path class="cls-3" d="M200.51,245.28a13.09,13.09,0,0,1-4.42,9.81,16.92,16.92,0,0,1-10.85,4.07H114a16.21,16.21,0,0,1-10.75-4,13,13,0,0,1-4.51-9.89V207.12a12.34,12.34,0,0,1,4.42-9.8A15.3,15.3,0,0,1,114,193.24l406.36.35a8.81,8.81,0,0,1,7.2,2.6,8.33,8.33,0,0,1,2.95,6.51c.12,0,.09.17-.09.52H562v-.52q0-14.92-11.45-25.42t-27.74-10.49H104.49a38.72,38.72,0,0,0-27,10.15q-11.19,10.14-11.19,24.54v49.44q0,14.4,11.1,24.55t27.06,10.15h90.29q16,0,27.07-10.15T233,250.92v-7.46H200.51Z" transform="translate(-66.33 -44.44)"/><polygon class="cls-3" points="214.76 158.96 182.32 158.96 182.32 241.18 214.76 241.18 214.76 197.9 310.34 197.9 310.34 171.96 214.76 171.96 214.76 158.96"/><path class="cls-3" d="M555.26,222.65q-11.7-10.93-28.62-10.85-11.88-.26-36.86,0-25,.09-36.95.09a9.85,9.85,0,0,1-7-2.69,8.87,8.87,0,0,1-2.9-5.8H407.83q.27,14.29,11.43,24.62,11.44,10.41,27.75,10.5H523.6a11.49,11.49,0,0,1,8.07,3.12,9.66,9.66,0,0,1,3.38,7.46,9.83,9.83,0,0,1-3.29,7.37,13.4,13.4,0,0,1-8.16,3H449.36a11.48,11.48,0,0,1-8.07-3.12,9.79,9.79,0,0,1-3.38-7.46v-.18H407.55q0,15.36,11.8,26.11A41.37,41.37,0,0,0,448,285.62h78.67q16.9,0,28.53-10.76,12-10.75,11.89-26.11Q567.32,233.41,555.26,222.65Z" transform="translate(-66.33 -44.44)"/><path class="cls-4" d="M409.45,278.37a221.9,221.9,0,0,1-18.1,22,243,243,0,0,1-21.54,20.44,261,261,0,0,1-24.11,18c-2.09,1.39-4.21,2.72-6.34,4.07l-3.21,1.92c-1.08.64-2.15,1.31-3.24,1.91l-3.25,1.84-1.63.92-1.65.87-3.29,1.76c-1.1.59-2.21,1.11-3.31,1.68a233.1,233.1,0,0,1-26.94,11.41l-3.4,1.14c-1.13.37-2.27.78-3.4,1.1l-3.39,1-1.71.51-1.69.45-3.39.9c-1.13.32-2.25.54-3.38.81l-3.38.79-3.36.66a170.12,170.12,0,0,1-26.38,3.15,143.56,143.56,0,0,1-24.84-1.27l-3-.46c-1-.17-2-.29-2.93-.52l-5.75-1.26c-1.86-.5-3.69-1-5.54-1.57-.94-.25-1.82-.57-2.71-.89l-2.67-.94a93.56,93.56,0,0,1-19.5-9.92A79,79,0,0,1,156.65,345c-1.2-1.27-2.25-2.67-3.32-4.05l-1.6-2.08-1.46-2.18-1.45-2.2a10,10,0,0,1-.68-1.13l-.66-1.15-1.29-2.31-.65-1.15-.57-1.21-1.14-2.41-.57-1.21c-.19-.4-.38-.81-.53-1.23l-1.95-5-1.62-5.24c-.3-.85-.48-1.78-.71-2.68l-.64-2.7A97,97,0,0,1,136,295.11h30.69l0,.1c.16.75.28,1.53.51,2.26l1.21,4.41,1.46,4.27a8.61,8.61,0,0,0,.4,1l.43,1,.86,2.06A71.32,71.32,0,0,0,193,337.82a79.6,79.6,0,0,0,15.59,9.39l2.15,1a20,20,0,0,0,2.18.9l4.51,1.65,4.68,1.41c.77.26,1.6.4,2.41.6l2.43.58a122.5,122.5,0,0,0,20.69,2.61,144.76,144.76,0,0,0,22.48-1l2.9-.36,2.93-.45c1-.17,1.95-.28,2.94-.47l3-.56,1.48-.28,1.49-.33,3-.66c2-.44,4-1,6-1.47a201.28,201.28,0,0,0,24.33-8.2,245.84,245.84,0,0,0,48.11-26.34,263.18,263.18,0,0,0,22.53-17.59,284.77,284.77,0,0,0,20.68-19.86Z" transform="translate(-66.33 -44.44)"/><path class="cls-4" d="M452.81,161.15c-.31-1.3-.65-2.58-1-3.85a90.66,90.66,0,0,0-5.5-14.84,77.65,77.65,0,0,0-4.65-8.35c-.82-1.35-1.75-2.63-2.63-3.92-.43-.66-.95-1.26-1.42-1.89s-.93-1.25-1.44-1.85a80.08,80.08,0,0,0-30-22.52A95.57,95.57,0,0,0,387,97.86l-2.55-.48c-.42-.08-.84-.17-1.27-.24l-1.3-.21-2.58-.4c-.88-.12-1.76-.21-2.64-.31-3.51-.42-7.13-.62-10.76-.77l-2.77,0c-.93,0-1.83,0-2.77,0l-2.8.07c-.47,0-.93,0-1.4,0l-1.42.09c-1.9.14-3.78.24-5.67.39l-5.75.65A176,176,0,0,0,320,101.4l-3,.84c-1,.29-2,.53-2.94.87L308.18,105l-5.91,2.16c-1,.34-2,.76-2.95,1.16l-2.94,1.2a229.5,229.5,0,0,0-23.22,11.28l-2.85,1.62-1.42.81-.71.4-.71.44-5.6,3.44-5.52,3.63c-.93.58-1.82,1.24-2.73,1.88l-2.71,1.9a251.18,251.18,0,0,0-20.68,16.53l-2.45,2.21c-.82.74-1.64,1.47-2.42,2.24l-1.43,1.38H193.57a263.51,263.51,0,0,1,22.05-21.1,281.45,281.45,0,0,1,25.25-19.26l3.29-2.19c1.1-.72,2.18-1.48,3.3-2.14l6.68-4.13,6.77-3.88.85-.48.85-.45,1.71-.91,3.41-1.81a247,247,0,0,1,27.69-12.23l3.47-1.25c1.16-.4,2.32-.84,3.47-1.18l6.94-2.19,6.9-1.88c1.15-.33,2.29-.56,3.43-.82l3.42-.78a179.4,179.4,0,0,1,26.72-3.77l6.44-.25c2.12,0,4.2,0,6.31.06h1.57l1.54.08,3.08.18c1,0,2,.18,3,.26s2,.19,3,.3c4,.51,7.87,1.1,11.61,2,.93.21,1.88.41,2.8.64l2.75.73c1.85.45,3.58,1.09,5.36,1.64.89.28,1.73.63,2.6.94s1.73.62,2.57,1l2.49,1.06c.42.18.83.35,1.24.54l1.21.57,2.41,1.16L412.13,89c1.58.81,3.05,1.74,4.52,2.65C439.1,105.75,452,129.5,452.79,157.3,452.82,158.57,452.83,159.86,452.81,161.15Z" transform="translate(-66.33 -44.44)"/><path class="cls-5" d="M448,295.11h3.87a323.79,323.79,0,0,1-39.78,40.45A341.61,341.61,0,0,1,381.39,359l-4,2.65c-1.33.88-2.65,1.79-4,2.62l-8.12,5-8.22,4.7-1,.59-1,.55-2.08,1.1-4.15,2.21a304,304,0,0,1-33.63,14.86l-4.23,1.5c-1.4.5-2.81,1-4.21,1.45l-8.43,2.65-8.38,2.29c-1.4.4-2.78.67-4.17,1l-4.16.95a220,220,0,0,1-32.47,4.57l-7.82.3c-2.57,0-5.11,0-7.66-.06l-1.91,0c-.62,0-1.25-.07-1.88-.1l-3.73-.21c-1.25-.06-2.46-.22-3.69-.33s-2.44-.22-3.65-.36a142.13,142.13,0,0,1-14.11-2.39c-1.14-.26-2.29-.5-3.41-.77l-3.34-.89c-2.25-.56-4.36-1.32-6.52-2-1.08-.34-2.1-.76-3.16-1.13s-2.1-.76-3.11-1.19l-3-1.29c-.51-.21-1-.42-1.52-.65l-1.46-.7-2.93-1.41L173.31,393c-1.91-1-3.7-2.11-5.49-3.22-28.53-18-44.41-48.71-43.94-84.49A117,117,0,0,0,131.81,328a99.65,99.65,0,0,0,5.64,10.14c1,1.64,2.13,3.18,3.21,4.76.52.79,1.14,1.53,1.71,2.29s1.15,1.52,1.76,2.24a97.2,97.2,0,0,0,36.5,27.37,116.44,116.44,0,0,0,23.16,7.37l3.1.59c.52.1,1,.21,1.55.29l1.57.25,3.15.49c1.06.14,2.13.25,3.2.38,4.26.52,8.67.76,13.08.93l3.35,0c1.13,0,2.23,0,3.37,0l3.41-.09,1.7,0,1.72-.12c2.3-.16,4.59-.28,6.89-.47l7-.79a215.08,215.08,0,0,0,28.41-5.74l3.58-1c1.2-.35,2.38-.64,3.59-1.06l7.18-2.33,7.17-2.62c1.19-.41,2.39-.93,3.58-1.41l3.57-1.45a273.34,273.34,0,0,0,28.22-13.72l3.46-2,1.73-1,.85-.5.86-.52,6.82-4.18,6.71-4.41c1.12-.71,2.2-1.52,3.3-2.28l3.3-2.31A304.11,304.11,0,0,0,394.32,317l3-2.69c1-.89,2-1.78,2.94-2.72l5.75-5.54,5.56-5.69c1.82-1.92,3.57-3.89,5.35-5.83s3.53-4,5.24-6A51.46,51.46,0,0,0,448,295.11Z" transform="translate(-66.33 -44.44)"/><path class="cls-5" d="M509.52,156c0,.45,0,.9,0,1.35H473.66a116.55,116.55,0,0,0-1.56-12.17l-.56-2.77c-.2-.92-.35-1.86-.62-2.74l-1.47-5.36-1.77-5.18a12.13,12.13,0,0,0-.49-1.28l-.53-1.25-1.05-2.5a86.4,86.4,0,0,0-26-33.46,96.25,96.25,0,0,0-18.94-11.41L418,78a27.41,27.41,0,0,0-2.66-1.09l-5.47-2-5.69-1.71c-.93-.31-1.95-.49-2.92-.73l-3-.7a146.76,146.76,0,0,0-25.14-3.17,175.44,175.44,0,0,0-27.32,1.19l-3.52.43-3.56.57c-1.19.19-2.37.33-3.56.56l-3.6.69-1.8.33-1.81.39-3.63.8c-2.42.54-4.86,1.21-7.3,1.8a244.17,244.17,0,0,0-29.56,10,299,299,0,0,0-58.45,32,323.74,323.74,0,0,0-27.38,21.36c-6.82,5.91-13.4,12.13-19.76,18.59h-1.31a277.25,277.25,0,0,1,17.92-21.21,296.69,296.69,0,0,1,26.17-24.84A318.63,318.63,0,0,1,254,89.36c2.54-1.69,5.12-3.3,7.7-4.93l3.9-2.35c1.31-.77,2.61-1.58,3.94-2.31l3.95-2.24,2-1.12,2-1.06,4-2.13c1.34-.72,2.69-1.36,4-2a282.35,282.35,0,0,1,32.73-13.87l4.13-1.38c1.38-.46,2.75-.94,4.13-1.34l4.13-1.23c.68-.2,1.37-.42,2.06-.61l2.06-.55,4.12-1.1c1.38-.38,2.73-.66,4.11-1l4.1-1,4.08-.81a206.53,206.53,0,0,1,32.05-3.81,173.9,173.9,0,0,1,30.19,1.54l3.59.56c1.19.21,2.42.34,3.57.62l7,1.54c2.26.61,4.49,1.26,6.74,1.9,1.14.31,2.21.69,3.29,1.08l3.24,1.15A114,114,0,0,1,464.51,65a96.37,96.37,0,0,1,19.2,16.92c1.47,1.54,2.73,3.25,4,4.93l1.94,2.52L491.47,92l1.76,2.68a15.4,15.4,0,0,1,.83,1.36l.79,1.4,1.57,2.81.79,1.4.7,1.47,1.38,2.93.69,1.47c.23.49.46,1,.65,1.49l2.37,6.13,2,6.36c.36,1,.58,2.15.85,3.25l.78,3.29A131,131,0,0,1,509.52,156Z" transform="translate(-66.33 -44.44)"/></g></g></g></svg>